<?xml version="1.0" encoding="utf-8"?>
<svg xmlns="http://www.w3.org/2000/svg" viewBox="0 0 48 48" width="480" height="480">
  <path fill="#37474f" d="M29,29v3l-2,15h4l3-15v-3H29z" />
  <rect width="2" height="20.4" x="36" y="26.6" fill="#455a64" />
  <path fill="#ffb74d" d="M37.5,28c-0.186,0-0.374-0.034-0.557-0.107c-0.77-0.308-1.144-1.181-0.836-1.949l1.559-3.896 l-5.026-3.519c-0.679-0.475-0.844-1.41-0.368-2.089c0.475-0.68,1.412-0.843,2.089-0.368l6,4.2c0.57,0.399,0.791,1.139,0.532,1.785 l-2,5C38.658,27.644,38.095,28,37.5,28z" />
  <path fill="#bbdefb" d="M24,16c-2-1-4.373-2-8-2s-7,2-7,5.5c1.384,1.172,2,2.5,2,2.5L8,36c0,0,1.5,2,8,2s8-2,8-2h1V16H24z" />
  <path fill="#bf360c" d="M21,14c0,0-2-1-5-1s-3,1-3,1V5h8V14z" />
  <path fill="#ffb74d" d="M20.629,37.558L20,47h-8l-0.629-9.442C12.52,37.814,14.027,38,16,38S19.48,37.814,20.629,37.558z" />
  <path fill="#ffb74d" d="M16,13c2.758,0,5-2.242,5-5c0-0.512,0.144-2.534,0-3c-0.63-2.041-2.754-2-5-2c-2.758,0-5,2.242-5,5 S13.242,13,16,13" />
  <path fill="#ff5722" d="M15,1c-3.038,0-6,1-6,10l4,3V8.5L19,5l2,2.5V14l2-3c0-2.012,0-9-6-9l-0.5-1H15z" />
  <path fill="#ff9800" d="M14,14v-1.423C14.613,12.846,15.288,13,16,13s1.387-0.154,2-0.423V14c0,0,0.042,2-2.041,2 S14,14,14,14z M15,47h2l-1-9L15,47z" />
  <path fill="#455a64" d="M24,29v3v7l2,1l2.533-1L29,32v-3H24z" />
  <path fill="#2196f3" d="M34,15.76V31H24v-7l-3-2c0-4.42,3.58-8,8-8C30.89,14,32.63,14.66,34,15.76z" />
  <path fill="#90caf9" d="M30.98,14.258C30.914,14.793,30.586,16,28.96,16c-1.623,0-1.903-1.203-1.949-1.74 c-0.671,0.172-1.309,0.424-1.9,0.752c0.124,0.561,0.384,1.229,0.936,1.816C26.549,17.363,27.463,18,28.96,18 c1.478,0,2.397-0.621,2.908-1.144c0.587-0.598,0.867-1.289,1.005-1.854C32.284,14.676,31.648,14.428,30.98,14.258z" />
  <path fill="#ff9800" d="M31.001,11h-4v3c0,0-0.124,2,1.959,2s2.041-2,2.041-2V11z" />
  <polygon fill="#ffb74d" points="24,31 24,32 21,30 21,22 24,24 24,29" />
  <path fill="#ffb74d" d="M29,13c2.758,0,5-2.242,5-5s-2.242-5-5-5s-5,2.242-5,5S26.242,13,29,13" />
  <path fill="#424242" d="M28.781,1C26.344,1.219,24,2.93,24,6.574V8l1,2V8l6.31-2.201L33,8v2l1-2V6.797 C34,4.383,33.865,2.592,31,2l-0.485-1H28.781z" />
  <polygon fill="#ffb74d" points="37.7,22 32,19 34.245,17.804" />
  <polygon fill="#2196f3" points="35.714,20.955 31.522,18.819 33.8,15.6 37.563,18.313" />
  <polygon fill="#cfd8dc" points="28.53,39 28.4,41 26,42 24,41 24,39" />
  <polygon fill="#b0bec5" points="28.4,41 28.27,43 26,44 24,43 24,41" />
  <path fill="#ffb74d" d="M14.5,24c-0.319,0-0.636-0.102-0.9-0.3l-2.32-1.74c-0.662-0.497-0.797-1.438-0.3-2.101 c0.497-0.662,1.437-0.796,2.101-0.3l1.626,1.22l6.203-2.658c0.76-0.325,1.643,0.025,1.97,0.788c0.326,0.762-0.026,1.644-0.788,1.97 l-7,3C14.901,23.96,14.7,24,14.5,24z" />
  <polygon fill="#cfd8dc" points="28.27,43 28.13,45 26,46 24,45 24,43" />
  <polygon fill="#b0bec5" points="28.13,45 28,47 24,47 24,45" />
  <path fill="#bbdefb" d="M11,23l2.5-3.5l-2.784-1.879c0,0-1.743,1.243-1.716,1.879C9.034,20.3,9.885,22.277,11,23z" />
</svg>