<?xml version="1.0" encoding="utf-8"?>
<svg xmlns="http://www.w3.org/2000/svg" viewBox="0 0 48 48" width="480" height="480">
  <path fill="#ffb74d" d="M10.5 11C8 11 6 9 6 6.5S8 2 10.5 2 15 4 15 6.5 13 11 10.5 11M37.5 11C40 11 42 9 42 6.5S40 2 37.5 2 33 4 33 6.5 35 11 37.5 11" />
  <path fill="#607d8b" d="M10,13c-4.4,0-7,3.6-7,8l13,0l4.4-0.1C15.4,13,15,13,10,13z" />
  <path fill="#607d8b" d="M24,29c-0.4,0-0.8-0.1-1.2-0.4l-4.3-3.2l-5.5-8c-0.6-0.9-0.4-2.2,0.5-2.8c0.9-0.6,2.2-0.4,2.8,0.5 l5.1,7.4l3.7,2.8c0.9,0.7,1.1,1.9,0.4,2.8C25.2,28.7,24.6,29,24,29z" />
  <path fill="#607d8b" d="M3 21v8l2.8 2 .9 14h7.5L16 21l3 4-1-4c0-4.4-3.4-8-7.5-8S3 16.6 3 21M38 13c4.4 0 7 3.6 7 8l-13 0L27.6 21C32.6 13 33 13 38 13z" />
  <path fill="#607d8b" d="M24,29c-0.6,0-1.2-0.3-1.6-0.8c-0.7-0.9-0.5-2.1,0.4-2.8l3.7-2.8l5.1-7.4c0.6-0.9,1.9-1.1,2.8-0.5 c0.9,0.6,1.1,1.9,0.5,2.8l-5.5,8l-4.3,3.2C24.8,28.9,24.4,29,24,29z" />
  <path fill="#607d8b" d="M45,21v8l-2.8,2l-0.9,14h-7.5L32,21l-3,4l1-4c0-4.4,3.4-8,7.5-8S45,16.6,45,21" />
  <path fill="#455a64" d="M28 26.4c-.2-1.1-.7-2-1.6-2.6l-.7-.6L24 24.5l1.2.9c.9.7 1.1 1.9.4 2.8-.1.2-.3.3-.5.4 0 0 .1 0 .1 0L28 26.4C28 26.5 28 26.5 28 26.4zM23.4 28.9C23.6 29 23.8 29 24 29 23.8 29 23.6 29 23.4 28.9zM22.9 28.6c.1.1.3.2.4.2C23.1 28.8 23 28.7 22.9 28.6zM24.7 28.9c-.1 0-.1 0-.2.1C24.6 28.9 24.7 28.9 24.7 28.9z" />
</svg>