<?xml version="1.0" encoding="utf-8"?>
<svg xmlns="http://www.w3.org/2000/svg" viewBox="0 0 48 48" width="480" height="480">
  <path fill="#ff9800" d="M22.941,42H7.059C6.476,42,6,41.55,6,41V28h18v13C24,41.55,23.524,42,22.941,42z" />
  <path fill="#ffaa2e" d="M25,28H5v-3c0-0.55,0.474-1,1.053-1h17.895C24.526,24,25,24.45,25,25V28z" />
  <path fill="#ff9800" d="M40.941,42H25.059C24.476,42,24,41.55,24,41V28h18v13C42,41.55,41.524,42,40.941,42z" />
  <path fill="#ffaa2e" d="M43,28H23v-3c0-0.55,0.474-1,1.053-1h17.895C42.526,24,43,24.45,43,25V28z" />
  <path fill="#ff9800" d="M31.941,24H16.059C15.476,24,15,23.55,15,23V10h18v13C33,23.55,32.524,24,31.941,24z" />
  <path fill="#ffaa2e" d="M34,10H14V7c0-0.55,0.474-1,1.053-1h17.895C33.526,6,34,6.45,34,7V10z" />
  <rect width="1" height="2" x="9" y="36" fill="#754600" />
  <polygon fill="#754600" points="11,36 8,36 9.507,34.002" />
  <rect width="1" height="2.049" x="13" y="35.951" fill="#754600" />
  <polygon fill="#754600" points="15,36 12,36 13.498,34" />
  <rect width="7" height="1" x="8" y="39" fill="#754600" />
  <rect width="1" height="2" x="27" y="36" fill="#754600" />
  <polygon fill="#754600" points="29,36 26,36 27.507,34.002" />
  <rect width="1" height="2.049" x="31" y="35.951" fill="#754600" />
  <polygon fill="#754600" points="33,36 30,36 31.498,34" />
  <rect width="7" height="1" x="26" y="39" fill="#754600" />
  <rect width="1" height="2" x="18" y="18" fill="#754600" />
  <polygon fill="#754600" points="20,18 17,18 18.507,16.002" />
  <rect width="1" height="2.049" x="22" y="17.951" fill="#754600" />
  <polygon fill="#754600" points="24,18 21,18 22.498,16" />
  <rect width="7" height="1" x="17" y="21" fill="#754600" />
  <path fill="#c77600" d="M32.035,24h-16.05C15.441,24,15,23.559,15,23.015V23h18v0.035C33,23.568,32.568,24,32.035,24z" />
  <path fill="#c77600" d="M24,24v17c0,0.552-0.448,1-1,1h0V24H24z" />
  <path fill="#c77600" d="M24,25c0-0.552,0.448-1,1-1h-1V25z" />
  <path fill="#c77600" d="M23,25c0-0.552-0.448-1-1-1h1V25z" />
</svg>